<svg xmlns="http://www.w3.org/2000/svg" viewBox="-24 -24 427.9680000000001 134" role="img" aria-label="Craig-T Logistics"><g transform="translate(0 0) scale(1)"><path fill="#fff" d="M0 0H66V24H0ZM28 30H52V86H28Z"/><path fill="#FFB81C" d="M72 0H84L100 12L84 24H72L88 12Z"/></g><path fill="#fff" transform="translate(128 50)" d="M23.2502421875 0.896Q18.0936640625 0.896 14.1805234375 -0.612578125Q10.267382812500001 -2.12115625 7.634246093750001 -4.99201953125Q5.001109375 -7.8628828125000005 3.6799726562500004 -11.85373828125Q2.3588359375 -15.84459375 2.3588359375 -20.8091484375Q2.3588359375 -25.901703125 3.7119726562500004 -30.00684375Q5.0651093750000005 -34.111984375 7.68453125 -37.06055859375Q10.303953125 -40.0091328125 14.079953125 -41.572566406250004Q17.855953125 -43.136 22.7656796875 -43.136Q26.7885546875 -43.136 29.951988281250003 -42.06170703125Q33.115421875 -40.9874140625 35.25941796875 -39.02626171875Q37.4034140625 -37.065109375 38.4639765625 -34.395386718750004Q39.524539062500004 -31.7256640625 39.39653125 -28.562234375L29.86053125 -26.5691171875Q29.915390625 -29.21140625 28.9325390625 -31.0125546875Q27.9496875 -32.813703125 26.26283203125 -33.77370703125Q24.5759765625 -34.7337109375 22.409109375 -34.7337109375Q20.589671875 -34.7337109375 18.9211015625 -33.99313671875Q17.25253125 -33.2525625 15.96796484375 -31.64341796875Q14.683398437500001 -30.0342734375 13.942832031250001 -27.51541796875Q13.202265625 -24.9965625 13.202265625 -21.4034296875Q13.202265625 -16.7405859375 14.46397265625 -13.65487109375Q15.7256796875 -10.56915625 18.0571015625 -9.0194375Q20.3885234375 -7.46971875 23.4788125 -7.46971875Q26.642234375 -7.46971875 28.411375 -8.86857421875Q30.180515625 -10.2674296875 30.921085937500003 -12.52571875Q31.66165625 -14.7840078125 31.5885078125 -17.325734375L40.90509375 -16.12803125Q41.005671875 -12.6446015625 40.11424609375 -9.5588828125Q39.2228203125 -6.4731640625 37.1428203125 -4.11430078125Q35.0628203125 -1.7554375 31.62967578125 -0.42971875Q28.19653125 0.896 23.2502421875 0.896ZM46.665109375 0.0V-42.24H64.4571015625Q67.675375 -42.24 70.40451171875 -41.7234296875Q73.1336484375 -41.206859375 75.2867890625 -40.19200390625Q77.43992968750001 -39.1771484375 78.97592968750001 -37.68686328125Q80.5119296875 -36.196578125 81.307359375 -34.2171484375Q82.1027890625 -32.23771875 82.1027890625 -29.7874296875Q82.1027890625 -27.657148437500002 81.41250390625 -25.878863281250002Q80.72221875 -24.100578125000002 79.28221875 -22.7291484375Q77.84221875 -21.35771875 75.643359375 -20.484574218749998Q73.4445 -19.6114296875 70.45478125 -19.2274296875V-18.4594375Q74.25821875 -18.1577265625 76.37022265625001 -16.84115234375Q78.4822265625 -15.524578125 79.58394140625 -13.43543359375Q80.68565625 -11.3462890625 81.4079375 -8.6308671875L83.7576484375 0.0H72.3016484375L70.5553671875 -8.018296875Q70.06165625 -10.413718750000001 69.1519453125 -11.7942890625Q68.24223437500001 -13.174859375 66.7336640625 -13.76000390625Q65.22509375 -14.3451484375 62.866234375000005 -14.3451484375H56.996539062500005V0.0ZM56.996539062500005 -22.1257265625H63.561093750000005Q67.300515625 -22.1257265625 69.3393671875 -23.579437499999997Q71.37821875 -25.0331484375 71.37821875 -28.0777109375Q71.37821875 -31.195421875 69.5039375 -32.703992187500006Q67.62965625000001 -34.212562500000004 63.81709375 -34.212562500000004H56.996539062500005ZM86.381703125 0.0 100.6354140625 -42.24H115.0628125L129.28909375 0.0H118.05252343750001L108.21482031250001 -34.0388515625H107.4651171875L97.5634140625 0.0ZM94.674265625 -7.7439921875V-14.820570312500001H122.4228125V-7.7439921875ZM134.217109375 0.0V-42.24H144.6856796875V0.0ZM169.3896796875 0.896Q164.06853125 0.896 160.00453515625003 -1.6365781250000002Q155.94053906250002 -4.16915625 153.65940234375 -8.992015625Q151.378265625 -13.814875 151.378265625 -20.6902890625Q151.378265625 -25.755421875 152.69026171875 -29.874277343750002Q154.0022578125 -33.9931328125 156.64453906250003 -36.9599921875Q159.28682031250003 -39.9268515625 163.21824609375003 -41.53142578125Q167.14967187500002 -43.136 172.4251015625 -43.136Q176.61253906250002 -43.136 179.84453906250002 -42.10285156250001Q183.07653906250002 -41.069703125000004 185.30739062500004 -39.204550781250006Q187.53824218750003 -37.3393984375 188.64451953125 -34.80224609375Q189.75079687500002 -32.26509375 189.65021875000002 -29.220515625L179.94964843750003 -26.97140625Q179.9679375 -29.55884375 178.95308593750002 -31.25484765625Q177.938234375 -32.9508515625 176.14166796875003 -33.828566406250005Q174.34510156250002 -34.70628125 172.00453125 -34.70628125Q168.92339843750003 -34.70628125 166.72911718750004 -33.21599609375Q164.53483593750002 -31.7257109375 163.37826562500004 -28.7085703125Q162.22169531250003 -25.6914296875 162.22169531250003 -21.16571875Q162.22169531250003 -17.7920078125 162.87998046875003 -15.2000078125Q163.538265625 -12.6080078125 164.8548359375 -10.866292968749999Q166.17140625000002 -9.124578125 168.11426171875002 -8.233148437499999Q170.0571171875 -7.34171875 172.63539843750002 -7.34171875Q175.21367968750002 -7.34171875 177.06967578125003 -8.18743359375Q178.92567187500003 -9.0331484375 179.98166796875003 -10.66514453125Q181.03766406250003 -12.297140625 181.074234375 -14.6834140625H173.94282031250003V-21.979414062500002H190.87535937500002V-13.8971328125V0.0H183.8445L183.73478906250003 -10.9165859375H182.75651562500002Q181.997671875 -7.0948671875 180.33824609375 -4.4525781250000005Q178.67882031250002 -1.8102890625 175.97710546875004 -0.45714453125000004Q173.27539062500003 0.896 169.3896796875 0.896ZM195.68455468750003 -12.406859375V-21.641140625000002H214.41825000000003V-12.406859375ZM229.07425000000003 0.0V-42.24H239.44225000000003V0.0ZM217.54514062500002 -33.55428125V-42.24H251.00792968750002V-33.55428125Z"/><path fill="#C9D6DE" transform="translate(128 82)" d="M1.4857006835937498 0.0V-17.16H5.682843994140625V0.0ZM2.228557373046875 0.0V-3.543429931640625H12.476264404296874V0.0ZM37.26752075195313 0.364Q35.41780737304688 0.364 33.93209399414063 -0.20799999999999996Q32.446380615234375 -0.7799999999999999 31.395238891601565 -1.898Q30.344097167968755 -3.016 29.781383789062502 -4.672571655273437Q29.218670410156253 -6.329143310546875 29.218670410156253 -8.501999999999999Q29.218670410156253 -11.57 30.27166882324219 -13.559000000000001Q31.32466723632813 -15.548 33.18366564941407 -16.536Q35.0426640625 -17.524 37.42352075195313 -17.524Q39.25837744140625 -17.524 40.738519165039065 -16.957571655273437Q42.21866088867188 -16.391143310546873 43.26980261230469 -15.273143310546875Q44.320944335937504 -14.155143310546874 44.88365771484375 -12.478143310546875Q45.44637109375 -10.801143310546875 45.44637109375 -8.606Q45.44637109375 -6.355143310546874 44.857657714843754 -4.672571655273437Q44.268944335937505 -2.9899999999999998 43.186230957031256 -1.8719999999999999Q42.103517578125 -0.754 40.597375854492185 -0.195Q39.09123413085938 0.364 37.26752075195313 0.364ZM37.4086640625 -2.990003173828125Q38.6380908203125 -2.990003173828125 39.464517578125 -3.604716552734375Q40.2909443359375 -4.219429931640625 40.71251440429688 -5.41728662109375Q41.134084472656255 -6.615143310546875 41.134084472656255 -8.379429931640624Q41.134084472656255 -10.247716552734374 40.69394274902344 -11.518001586914062Q40.25380102539063 -12.78828662109375 39.40137426757813 -13.440143310546874Q38.548947509765625 -14.091999999999999 37.293520751953125 -14.091999999999999Q36.09009399414063 -14.091999999999999 35.25066723632813 -13.466143310546874Q34.41124047851563 -12.84028662109375 33.97667041015626 -11.610858276367187Q33.54210034179688 -10.381429931640625 33.54210034179688 -8.57628662109375Q33.54210034179688 -7.213143310546875 33.79281372070313 -6.165714965820312Q34.04352709960938 -5.11828662109375 34.52824047851563 -4.414429931640625Q35.01295385742188 -3.7105732421875 35.74095227050782 -3.3502882080078127Q36.468950683593754 -2.990003173828125 37.4086640625 -2.990003173828125ZM70.24505737304688 0.364Q68.08334082031251 0.364 66.43234240722657 -0.6648598632812499Q64.78134399414063 -1.6937197265625 63.854632202148444 -3.6530063476562495Q62.92792041015626 -5.612292968749999 62.92792041015626 -8.405429931640624Q62.92792041015626 -10.46314013671875 63.460918823242196 -12.136425170898438Q63.99391723632813 -13.809710205078124 65.06734399414063 -15.014996826171874Q66.14077075195313 -16.220283447265626 67.73791247558594 -16.872141723632815Q69.33505419921876 -17.524 71.47819750976564 -17.524Q73.17934399414064 -17.524 74.49234399414064 -17.104283447265622Q75.80534399414063 -16.684566894531248 76.71162744140625 -15.926848754882812Q77.61791088867189 -15.169130615234375 78.06733605957032 -14.138412475585938Q78.51676123046876 -13.107694335937499 78.4759013671875 -11.870834472656249L74.53504467773438 -10.9571337890625Q74.542474609375 -12.0082802734375 74.13019116210938 -12.697281860351563Q73.71790771484376 -13.386283447265624 72.9880526123047 -13.742855102539062Q72.25819750976564 -14.0994267578125 71.3073408203125 -14.0994267578125Q70.05563061523438 -14.0994267578125 69.16420385742188 -13.493998413085937Q68.27277709960939 -12.888570068359375 67.80292041015626 -11.662856689453125Q67.33306372070314 -10.437143310546874 67.33306372070314 -8.5985732421875Q67.33306372070314 -7.2280031738281245 67.6004920654297 -6.175003173828125Q67.86792041015626 -5.122003173828125 68.40277709960938 -4.414431518554688Q68.9376337890625 -3.7068598632812497 69.72691882324219 -3.3447165527343747Q70.51620385742189 -2.9825732421874998 71.56363061523439 -2.9825732421874998Q72.61105737304689 -2.9825732421874998 73.36505578613281 -3.3261448974609373Q74.11905419921875 -3.669716552734375 74.5480526123047 -4.332714965820312Q74.97705102539064 -4.99571337890625 74.99190771484376 -5.965136962890624H72.09477075195313V-8.929136962890624H78.97361474609376V-5.6457102050781245V0.0H76.117328125L76.07275805664064 -4.434863037109375H75.67533447265626Q75.36705419921876 -2.8822897949218746 74.69291247558594 -1.8088598632812498Q74.01877075195313 -0.735429931640625 72.92119909667969 -0.1857149658203125Q71.82362744140626 0.364 70.24505737304688 0.364ZM97.07545068359376 0.0V-17.16H101.32830737304688V0.0ZM126.61727075195313 0.364Q124.88641088867189 0.364 123.52883923339846 0.00742675781249999Q122.17126757812501 -0.349146484375 121.21669750976564 -1.0474346923828124Q120.26212744140626 -1.745722900390625 119.75141564941407 -2.7764394531249996Q119.24070385742188 -3.8071560058593747 119.18870703125 -5.129442626953125L122.95499682617188 -6.21029296875Q123.02185351562501 -5.0737197265625 123.52885192871095 -4.340148071289062Q124.03585034179689 -3.6065764160156246 124.90499047851563 -3.2555764160156246Q125.77413061523438 -2.9045764160156247 126.84012744140625 -2.9045764160156247Q127.79840771484376 -2.9045764160156247 128.47811950683595 -3.1441464843749998Q129.15783129882814 -3.383716552734375 129.52368798828127 -3.7792866210937497Q129.8895446777344 -4.174856689453125 129.8895446777344 -4.65771337890625Q129.8895446777344 -5.252 129.40668798828125 -5.640143310546875Q128.92383129882813 -6.028286621093749 128.08254626464844 -6.306858276367187Q127.24126123046875 -6.585429931640625 126.14183447265626 -6.856573242187499Q124.91983764648438 -7.1685732421875 123.73312585449219 -7.538144897460937Q122.5464140625 -7.9077165527343745 121.5769873046875 -8.487144897460936Q120.607560546875 -9.0665732421875 120.02627551269532 -9.984001586914061Q119.44499047851563 -10.901429931640624 119.44499047851563 -12.283143310546874Q119.44499047851563 -13.902573242187499 120.26770544433595 -15.072573242187499Q121.09042041015626 -16.2425732421875 122.62999047851562 -16.883286621093752Q124.169560546875 -17.524 126.30155419921876 -17.524Q128.4632644042969 -17.524 130.04926440429688 -16.85728503417969Q131.6352644042969 -16.190570068359374 132.4932644042969 -14.961138549804687Q133.35126440429687 -13.73170703125 133.31783129882814 -12.045414062499999L129.52925805664063 -11.153993652343749Q129.5404013671875 -11.919136962890624 129.3212596435547 -12.5022802734375Q129.10211791992188 -13.085423583984374 128.68797619628907 -13.479138549804688Q128.27383447265626 -13.872853515625 127.65726440429688 -14.078996826171874Q127.0406943359375 -14.285140136718748 126.23098095703126 -14.285140136718748Q125.32098413085939 -14.285140136718748 124.69884399414063 -14.062283447265624Q124.07670385742188 -13.839426757812499 123.7591337890625 -13.467998413085937Q123.44156372070313 -13.096570068359375 123.44156372070313 -12.61371337890625Q123.44156372070313 -12.023143310546875 123.93184716796875 -11.636858276367187Q124.42213061523438 -11.2505732421875 125.28384240722657 -10.9775732421875Q126.14555419921876 -10.7045732421875 127.241267578125 -10.433429931640624Q128.359267578125 -10.166 129.5274093017578 -9.803856689453125Q130.69555102539064 -9.44171337890625 131.70212109375 -8.852998413085938Q132.70869116210937 -8.264283447265624 133.32340454101563 -7.294855102539062Q133.9381179199219 -6.3254267578125 133.9381179199219 -4.8434267578125Q133.9381179199219 -3.201710205078125 133.07083129882812 -2.0354251708984377Q132.20354467773439 -0.86914013671875 130.56368957519533 -0.252570068359375Q128.92383447265627 0.364 126.61727075195313 0.364ZM155.2936640625 0.0V-17.16H159.5056640625V0.0ZM150.60996337890626 -13.6314267578125V-17.16H164.20422143554688V-13.6314267578125ZM181.61520068359377 0.0V-17.16H185.8680573730469V0.0ZM212.3381608886719 0.364Q210.24330102539062 0.364 208.65358764648437 -0.24885986328124998Q207.06387426757814 -0.8617197265625 205.99416247558594 -2.0280079345703124Q204.92445068359376 -3.194296142578125 204.38773889160157 -4.815581176757812Q203.85102709960938 -6.4368662109375 203.85102709960938 -8.453716552734374Q203.85102709960938 -10.52256689453125 204.40073889160158 -12.1902802734375Q204.95045068359374 -13.85799365234375 206.0145908203125 -15.055851928710936Q207.07873095703127 -16.253710205078125 208.61273095703126 -16.88885510253906Q210.14673095703125 -17.524 212.14130737304689 -17.524Q213.7756003417969 -17.524 215.0607452392578 -17.087568481445313Q216.34589013671877 -16.651136962890625 217.2168885498047 -15.854418823242188Q218.08788696289062 -15.05770068359375 218.5187404785156 -13.973125854492187Q218.94959399414063 -12.888551025390624 218.8975908203125 -11.60340771484375L215.0235908203125 -10.793703857421875Q215.04587744140625 -11.8671337890625 214.64659399414063 -12.598850341796876Q214.247310546875 -13.33056689453125 213.56202551269533 -13.720568481445312Q212.87674047851564 -14.110570068359374 211.99645068359376 -14.110570068359374Q211.25730419921877 -14.110570068359374 210.57944750976563 -13.809711791992186Q209.9015908203125 -13.508853515624999 209.37973571777343 -12.855138549804686Q208.8578806152344 -12.201423583984374 208.5570255126953 -11.178138549804686Q208.25617041015624 -10.154853515625 208.25617041015624 -8.695143310546875Q208.25617041015624 -6.800863037109375 208.76873889160157 -5.5472913818359375Q209.28130737304687 -4.2937197265625 210.22844750976563 -3.6641464843750002Q211.1755876464844 -3.0345732421875 212.431017578125 -3.0345732421875Q213.71615771484375 -3.0345732421875 214.43487109375002 -3.6028582763671873Q215.15358447265626 -4.171143310546875 215.4544411621094 -5.0885732421875005Q215.75529785156252 -6.006003173828125 215.72558129882813 -7.038579589843749L219.5104443359375 -6.5520126953124995Q219.55130419921875 -5.136869384765625 219.18916247558593 -3.883296142578125Q218.82702075195314 -2.629722900390625 217.98202075195314 -1.6714346923828125Q217.13702075195312 -0.713146484375 215.74230578613282 -0.17457324218749998Q214.34759082031252 0.364 212.3381608886719 0.364ZM243.90427075195313 0.364Q242.1734108886719 0.364 240.81583923339844 0.00742675781249999Q239.458267578125 -0.349146484375 238.50369750976563 -1.0474346923828124Q237.54912744140626 -1.745722900390625 237.03841564941408 -2.7764394531249996Q236.5277038574219 -3.8071560058593747 236.47570703125 -5.129442626953125L240.24199682617189 -6.21029296875Q240.308853515625 -5.0737197265625 240.81585192871094 -4.340148071289062Q241.32285034179688 -3.6065764160156246 242.19199047851563 -3.2555764160156246Q243.0611306152344 -2.9045764160156247 244.12712744140626 -2.9045764160156247Q245.08540771484377 -2.9045764160156247 245.76511950683596 -3.1441464843749998Q246.44483129882815 -3.383716552734375 246.81068798828127 -3.7792866210937497Q247.1765446777344 -4.174856689453125 247.1765446777344 -4.65771337890625Q247.1765446777344 -5.252 246.69368798828128 -5.640143310546875Q246.21083129882814 -6.028286621093749 245.36954626464845 -6.306858276367187Q244.52826123046876 -6.585429931640625 243.42883447265626 -6.856573242187499Q242.2068376464844 -7.1685732421875 241.02012585449222 -7.538144897460937Q239.83341406250003 -7.9077165527343745 238.86398730468753 -8.487144897460936Q237.89456054687503 -9.0665732421875 237.31327551269533 -9.984001586914061Q236.73199047851563 -10.901429931640624 236.73199047851563 -12.283143310546874Q236.73199047851563 -13.902573242187499 237.55470544433595 -15.072573242187499Q238.37742041015628 -16.2425732421875 239.91699047851563 -16.883286621093752Q241.456560546875 -17.524 243.58855419921878 -17.524Q245.7502644042969 -17.524 247.3362644042969 -16.85728503417969Q248.9222644042969 -16.190570068359374 249.78026440429687 -14.961138549804687Q250.63826440429688 -13.73170703125 250.60483129882815 -12.045414062499999L246.81625805664063 -11.153993652343749Q246.82740136718752 -11.919136962890624 246.6082596435547 -12.5022802734375Q246.3891179199219 -13.085423583984374 245.97497619628908 -13.479138549804688Q245.56083447265627 -13.872853515625 244.9442644042969 -14.078996826171874Q244.3276943359375 -14.285140136718748 243.51798095703126 -14.285140136718748Q242.6079841308594 -14.285140136718748 241.98584399414062 -14.062283447265624Q241.36370385742188 -13.839426757812499 241.0461337890625 -13.467998413085937Q240.72856372070314 -13.096570068359375 240.72856372070314 -12.61371337890625Q240.72856372070314 -12.023143310546875 241.21884716796876 -11.636858276367187Q241.7091306152344 -11.2505732421875 242.57084240722656 -10.9775732421875Q243.43255419921877 -10.7045732421875 244.52826757812502 -10.433429931640624Q245.64626757812502 -10.166 246.81440930175785 -9.803856689453125Q247.98255102539065 -9.44171337890625 248.98912109375001 -8.852998413085938Q249.99569116210938 -8.264283447265624 250.61040454101564 -7.294855102539062Q251.2251179199219 -6.3254267578125 251.2251179199219 -4.8434267578125Q251.2251179199219 -3.201710205078125 250.35783129882816 -2.0354251708984377Q249.4905446777344 -0.86914013671875 247.85068957519533 -0.252570068359375Q246.21083447265627 0.364 243.90427075195313 0.364Z"/></svg>